Movie Info
Plot: A documentary filmmaker travels to Jellystone Park to
shoot a project and soon crosses paths with Yogi Bear, his
sidekick Boo-Boo, and Ranger Smith.
IMDB: http://www.imdb.com/title/tt1302067/
IMDB Rating: 3.7/10
Trailer:



General Info
Size: 1.15GB
Format: AVI
Runtime: 1:12:52



Sources
Video - Yogi.Bear.2011.FRENCH.TS.LD.XviD-SERENiTY
Audio - Yogi Bear 2010 TS V2 XViD IMAGiNE
Thanks to both 



Video Info
ID : 0
Format : MPEG-4 Visual
Format profile : Advanced Simple@L5
Format settings, BVOP : Yes
Format settings, QPel : No
Format settings, GMC : No warppoints
Format settings, Matrix : Default (H.263)
Muxing mode : Packed bitstream
Codec ID : XVID
Codec ID/Hint : XviD
Duration : 1h 12mn
Bit rate : 2 024 Kbps
Width : 704 pixels
Height : 384 pixels
Display aspect ratio : 16:9
Frame rate : 25.000 fps
Color space : YUV
Chroma subsampling : 4:2:0
Bit depth : 8 bits
Scan type : Progressive
Compression mode : Lossy
Bits/(Pixel*Frame) : 0.299
Stream size : 1.03 GiB (90%)
Writing library : XviD 1.0.3 (UTC 2004-12-20)


Audio Info
ID : 1
Format : AC-3
Format/Info : Audio Coding 3
Mode extension : CM (complete main)
Codec ID : 2000
Duration : 1h 12mn
Bit rate mode : Constant
Bit rate : 224 Kbps
Channel(s) : 2 channels
Channel positions : Front: L R
Sampling rate : 48.0 KHz
Bit depth : 16 bits
Compression mode : Lossy
Stream size : 117 MiB (10%)
Alignment : Aligned on interleaves
Interleave, duration : 40 ms (1.00 video frame)
Interleave, preload duration : 512 ms



Encoders Notes
I dropped the source into vdubmod,
I lightly de-noised it & sharpened it.
Then i lowerd the birghtness, increased the: contrast, gamma & saturation.
The colours looked off so i changed them with a rgb eq.
Finaly i Changed the resolution & muxed it to imagines line audio.
It looks prety good imo. A little dark because the brightness gave it a gray-ish tint.
Watch the sample to check that you are happy with the quality.
ENJOY.. 


I am looking for;
Cammers, Cams, Screeners (any type), Cam audio, Line audio,
Un-released R6's R5's R4's R2's R1's,
A 25GB+ FTP server, A Windows Server
& a syncer.
If you can provide any of these please
contact me at illusion@hushmail.me






================================== 
http://thepiratebay.org/user/hiest
==================================






Screenz:
 
http://leetleech.org/images/80842766864512372734.jpg
 
http://leetleech.org/images/49749504860901904627.jpg
 
http://leetleech.org/images/87859124528823147512.jpg
 
http://leetleech.org/images/61196818646704657040.jpg
 
http://leetleech.org/images/70213373481272514000.jpg
 
http://leetleech.org/images/59502155067111431714.jpg
